<svg id="Layer_1" data-name="Layer 1" xmlns="http://www.w3.org/2000/svg" viewBox="0 0 185.76 204.76"><defs><style>.cls-1{fill:#d9f2de;stroke:#54c569;stroke-miterlimit:10;stroke-width:5px;}</style></defs><title>minnesota</title><path id="MN" class="cls-1" d="M48.4,29.08l-.94,6.1v16.1L50,59.1l3,5.16.78,15.48,2.82,21,2.81,11.41.63,10v8.29l-2.51,2.81-2.81,2v2.34l1.41,2.66,6.41,5.47,1.09,5v56.12l94.28-.94L191,204.81l-.78-9.38-2.82-3.28L176.13,185l-5.63-8.28-5.32-1.41-3.12-4.38h-5l-5.47-5.94L150.8,154l.16-6.1,2.34-4.69L152.21,139l-4.38-4.85,3.44-9.53,8.44-6.26,1.88-2.19-.31-12.5.31-4.69,4.06-4.69,5.94-4.54,2-.31,7-7.82,2.82-1.25,3.59-6.1,3.75-5.62,4.85-4.07,7.5-3.13L217.56,55l6.1-2.81.93-3.6-6.88.63L216.62,51h-.94l-2.81-4.85L199,46.59l-1.56,1.25h-1.56l-.79-2L193.79,43l-4.06.78-5,5L182.22,50h-4.84l-4.07-1.56V45.18l-2-.31-.78.78-4.07-2-.78-4.53-2.34.78-.78,1.56-3.76-.78-8.28-3.75-6.1-4.07h-4.53l-2-1.56-3.59.94-1.72,1.72L132,36h-7.51V32.68l-9.84-.47-.47-2.35h-7.51l-2.5-2.5-2.34-9.54-1.26-8.59L97.64,8l-3.59-.78-.94.32-.47,12.82H45.58Z" transform="translate(-42.15 -4.6)"/></svg>